# xmcd
#
# Track frame offsets: 
#        150
#        19248
#        35700
#        52781
#        68120
#        88385
#        100472
#        120743
#        135864
#        153344
#        168520
#        184444
#
# Disc length: 2735 seconds
#
# Revision: 0
# Processed by: cddbd v1.5.1PL2 Copyright (c) Steve Scherf et al.
# Submitted via: ExactAudioCopy v0.95b3
#
DISCID=a30aad0c
DTITLE=Olavi Uusivirta - Me ei kuolla koskaan
DYEAR=2005
DGENRE=Blues
TTITLE0=Me ei kuolla koskaan
TTITLE1=Ala vet‰‰
TTITLE2=Betonikaupunki
TTITLE3=Irrallaan
TTITLE4=Rakkausrunoja
TTITLE5=Aina siell‰
TTITLE6=Nyt kun kuljet ymp‰rill‰ni
TTITLE7=Niin kuin eilenkin
TTITLE8=On niin helppoo olla onnellinen
TTITLE9=Laululilja
TTITLE10=S‰ et tied‰ mit‰‰n
TTITLE11=Hautalaulu
EXTD=
EXTT0=
EXTT1=
EXTT2=
EXTT3=
EXTT4=
EXTT5=
EXTT6=
EXTT7=
EXTT8=
EXTT9=
EXTT10=
EXTT11=
PLAYORDER=
